<?xml version="1.0" standalone="no"?>
<!DOCTYPE svg PUBLIC "-//W3C//DTD SVG 20010904//EN"
 "http://www.w3.org/TR/2001/REC-SVG-20010904/DTD/svg10.dtd">
<svg version="1.0" xmlns="http://www.w3.org/2000/svg"
 width="277.000000pt" height="277.000000pt" viewBox="0 0 277.000000 277.000000"
 preserveAspectRatio="xMidYMid meet">
<metadata>
Created by potrace 1.14, written by Peter Selinger 2001-2017
</metadata>
<g transform="translate(0.000000,277.000000) scale(0.100000,-0.100000)"
fill="#000000" stroke="none">
<path d="M480 2715 c-155 -44 -275 -173 -309 -333 -15 -70 -16 -1905 -1 -1983
25 -133 119 -252 247 -312 56 -25 83 -32 155 -35 49 -3 109 1 135 7 27 7 118
51 203 99 229 129 320 229 360 401 18 76 8 231 -19 303 -52 134 -77 138 -257
33 -71 -41 -139 -75 -151 -75 -12 0 -35 12 -52 26 l-31 26 0 513 c0 495 1 513
20 537 24 31 59 39 97 23 61 -26 849 -487 866 -506 24 -29 21 -73 -5 -103 -13
-14 -75 -55 -138 -91 -162 -93 -175 -112 -122 -196 67 -105 202 -195 330 -220
76 -14 210 -7 272 15 76 28 330 178 386 229 37 34 65 72 91 125 37 75 38 78
38 192 0 111 -1 118 -34 185 -64 129 -58 125 -947 637 -445 257 -832 477 -859
489 -65 29 -198 35 -275 14z"/>
</g>
</svg>
